<svg width="1440" height="189" viewBox="0 0 1440 189" fill="none" xmlns="http://www.w3.org/2000/svg">
<rect x="24.5" y="55.5" width="67" height="133" stroke="white"/>
<rect x="322.5" y="41.5" width="67" height="147" stroke="white"/>
<rect y="43.4286" width="68" height="145.667" fill="white"/>
<rect x="419" y="33" width="73" height="156" fill="white"/>
<rect x="117" y="18.0952" width="68" height="171" fill="white"/>
<rect x="181" y="45" width="72" height="144" fill="white"/>
<rect x="288" y="31" width="68" height="158" fill="white"/>
<rect x="246" y="154" width="42" height="35" fill="white"/>
<rect x="65" y="78" width="71" height="111" fill="white"/>
<rect x="352" y="78" width="72" height="111" fill="white"/>
<rect x="505.28" y="57.5" width="69.2114" height="131" stroke="white"/>
<rect x="812.972" y="43.5" width="69.2114" height="145" stroke="white"/>
<rect x="480" y="45" width="70.2114" height="144" fill="white"/>
<rect x="911" y="62" width="77" height="127" fill="white"/>
<rect x="600.805" y="20" width="70.2114" height="169" fill="white"/>
<rect x="665" y="33" width="76" height="156" fill="white"/>
<rect x="737" width="74" height="189" fill="white"/>
<rect x="777.366" y="33" width="70.2114" height="156" fill="white"/>
<rect x="547" y="80" width="73" height="109" fill="white"/>
<rect x="842" y="80" width="76" height="109" fill="white"/>
<rect x="1008.5" y="55.5" width="67" height="133" stroke="white"/>
<rect x="1306.5" y="41.5" width="67" height="147" stroke="white"/>
<rect x="984" y="43.4286" width="68" height="145.667" fill="white"/>
<rect x="1404" y="44" width="72" height="145" fill="white"/>
<rect x="1101" y="18.0952" width="68" height="171" fill="white"/>
<rect x="1163" y="31" width="74" height="158" fill="white"/>
<rect x="1272" y="31" width="68" height="158" fill="white"/>
<rect x="1230" y="154" width="42" height="35" fill="white"/>
<rect x="1047" y="78" width="73" height="111" fill="white"/>
<rect x="1335" y="78" width="73" height="111" fill="white"/>
</svg>
